# xmcd
#
# Track frame offsets: 
#        150
#        10667
#        20488
#        30597
#        40140
#        49536
#        60646
#        70213
#        80737
#        93088
#        102357
#        113489
#        124766
#        135919
#        147599
#        159787
#        170721
#        181826
#        193447
#        204116
#        215267
#        226596
#        236583
#        247910
#        259634
#        271411
#        284075
#        294284
#
# Disc length: 4072 seconds
#
# Revision: 1
# Processed by: cddbd v1.5.2PL0 Copyright (c) Steve Scherf et al.
# Submitted via: ExactAudioCopy v1.1
#
DISCID=7c0fe61c
DTITLE=Buck Owens - Complete Capitol Singles 1957-1966 - Disc 1
DYEAR=2016
DGENRE=Country
TTITLE0=Come Back (mono single version)
TTITLE1=I Know What It Means (mono single version)
TTITLE2=Sweet Thing (mono single version)
TTITLE3=I Only Know That I Love You (mono single version)
TTITLE4=I'll Take A Chance On Loving You (mono single version)
TTITLE5=Walk The Floor (mono single version)
TTITLE6=Second Fiddle (mono single version)
TTITLE7=Everlasting Love (mono single version)
TTITLE8=Under Your Spell Again (mono single version)
TTITLE9=Tired Of Livin' (mono single version)
TTITLE10=Above And Beyond (mono single version)
TTITLE11=Til These Dreams Come True (mono single version)
TTITLE12=Excuse Me (I Think I've Got A Heartache) (mono single version
TTITLE12=)
TTITLE13=I've Got A Right To Know (mono single version)
TTITLE14=Foolin' Around (mono single version)
TTITLE15=High As The Mountains (mono single version)
TTITLE16=Mental Cruelty (mono single version)
TTITLE17=Loose Talk (mono single version)
TTITLE18=Under The Influence Of Love (mono single version)
TTITLE19=Bad Bad Dream (mono single version)
TTITLE20=Nobody's Fool But Yours (mono single version)
TTITLE21=Mirror, Mirror On The Wall (mono single version)
TTITLE22=Save The Last Dance For Me (mono single version)
TTITLE23=King Of Fools (mono single version)
TTITLE24=Kickin' Our Hearts Around (mono single version)
TTITLE25=I Can't Stop (My Lovin' You) (mono single version)
TTITLE26=You're For Me (mono single version)
TTITLE27=House Down The Block (mono single version)
EXTD=
EXTT0=
EXTT1=
EXTT2=
EXTT3=
EXTT4=
EXTT5=
EXTT6=
EXTT7=
EXTT8=
EXTT9=
EXTT10=
EXTT11=
EXTT12=
EXTT13=
EXTT14=
EXTT15=
EXTT16=
EXTT17=
EXTT18=
EXTT19=
EXTT20=
EXTT21=
EXTT22=
EXTT23=
EXTT24=
EXTT25=
EXTT26=
EXTT27=
PLAYORDER=
